<svg xmlns="http://www.w3.org/2000/svg" xmlns:xlink="http://www.w3.org/1999/xlink" viewBox="0 0 537.88 109.9"><defs><clipPath id="a" transform="translate(-73.49 -358.35)"><path d="M162.13,411a24.69,24.69,0,0,0-8.42-16.33,25.91,25.91,0,0,0-34.64,0A24.62,24.62,0,0,0,110.64,411Zm-25.78,34.13A31.35,31.35,0,0,1,114.06,436a31,31,0,0,1-9.27-22.12,31.68,31.68,0,0,1,9.27-22.31,31.7,31.7,0,0,1,10-6.7,31.56,31.56,0,0,1,24.62,0,32.15,32.15,0,0,1,10,6.7,31.22,31.22,0,0,1,6.75,10.08A30.77,30.77,0,0,1,168,413.88a2.5,2.5,0,0,1-.86,2,2.6,2.6,0,0,1-2,.86h-54.5a24.67,24.67,0,0,0,8.42,16.15,25.13,25.13,0,0,0,17.29,6.6q15.6,0,23.34-10.75a2.82,2.82,0,0,1,1.8-1.13,1.89,1.89,0,0,1,.47-.06,3,3,0,0,1,1.65.56,2.63,2.63,0,0,1,1.12,1.89,2.53,2.53,0,0,1,.06.56,2.56,2.56,0,0,1-.5,1.53,29.69,29.69,0,0,1-11.73,9.73,37.49,37.49,0,0,1-16.21,3.36ZM224,382.52a2.75,2.75,0,0,1,1.53,1.59,3.19,3.19,0,0,1,.18,1,3.59,3.59,0,0,1-.21,1.15l-34.14,80.27a2.65,2.65,0,0,1-2.62,1.69,3.59,3.59,0,0,1-1.15-.21A2.82,2.82,0,0,1,186,466.5a3.19,3.19,0,0,1-.18-1,2.92,2.92,0,0,1,.24-1.14l9.4-22.06-23.85-56a2.81,2.81,0,0,1-.23-1.09,3.08,3.08,0,0,1,1.71-2.68,3.08,3.08,0,0,1,1.08-.21,3.47,3.47,0,0,1,1.13.21,2.79,2.79,0,0,1,1.55,1.54L198.54,435l21.67-50.93a3.1,3.1,0,0,1,1.59-1.54,3.18,3.18,0,0,1,1.09-.21,3,3,0,0,1,1.07.21ZM286.45,411A24.75,24.75,0,0,0,278,394.7a25.91,25.91,0,0,0-34.64,0A24.66,24.66,0,0,0,235,411Zm-25.79,34.13A31.35,31.35,0,0,1,238.37,436a31.16,31.16,0,0,1-6.78-34.35,31.31,31.31,0,0,1,6.78-10.08,31.7,31.7,0,0,1,10-6.7,31.56,31.56,0,0,1,24.62,0,31.92,31.92,0,0,1,10,6.7,31.22,31.22,0,0,1,6.75,10.08,30.77,30.77,0,0,1,2.51,12.23,2.53,2.53,0,0,1-.85,2,2.64,2.64,0,0,1-2,.86H235a24.64,24.64,0,0,0,8.43,16.15,25.11,25.11,0,0,0,17.28,6.6c10.41,0,18.17-3.59,23.34-10.75a2.82,2.82,0,0,1,1.8-1.13,1.89,1.89,0,0,1,.47-.06,3,3,0,0,1,1.65.56,2.67,2.67,0,0,1,1.13,1.89,2.54,2.54,0,0,1,.05.56,2.56,2.56,0,0,1-.5,1.53,29.69,29.69,0,0,1-11.73,9.73,37.46,37.46,0,0,1-16.21,3.36Zm68.15-57.11a24,24,0,0,0-17.8,7.56,26.15,26.15,0,0,0,0,36.29,24,24,0,0,0,17.8,7.57q12.76,0,20.32-10.58a2.69,2.69,0,0,1,1.82-1.15l.56,0a2.64,2.64,0,0,1,1.6.5,2.89,2.89,0,0,1,1.14,1.88,1.68,1.68,0,0,1,.06.45,2.92,2.92,0,0,1-.56,1.65c-6.2,8.64-14.49,13-24.94,13A29.43,29.43,0,0,1,307,435.94a31.77,31.77,0,0,1,0-44.37,29.45,29.45,0,0,1,21.78-9.2c10.45,0,18.74,4.31,24.94,13a2.85,2.85,0,0,1,.56,1.65,1.78,1.78,0,0,1-.06.44,2.94,2.94,0,0,1-1.14,1.89,2.78,2.78,0,0,1-1.6.5,2.81,2.81,0,0,1-.56-.06,2.58,2.58,0,0,1-1.82-1.14Q341.59,388,328.81,388.05Zm62,51.42a23.73,23.73,0,0,0,17.74-7.57,25.95,25.95,0,0,0,0-36.29,23.72,23.72,0,0,0-17.74-7.56A24,24,0,0,0,373,395.61a26.15,26.15,0,0,0,0,36.29A24,24,0,0,0,390.82,439.47Zm28-57.1a2.67,2.67,0,0,1,2,.85,2.74,2.74,0,0,1,.79,2v57.11a2.8,2.8,0,0,1-2.77,2.85,2.86,2.86,0,0,1-2.06-.85,2.8,2.8,0,0,1-.8-2V431.9q-9.25,13.26-25.15,13.26A29.39,29.39,0,0,1,369,435.94a31.77,31.77,0,0,1,0-44.37,29.45,29.45,0,0,1,21.78-9.2q15.88,0,25.15,13.3V385.2a2.82,2.82,0,0,1,2.86-2.83Zm42.71,0q11.84,0,20.14,9.2a31.58,31.58,0,0,1,8.41,22.13v28.67a2.66,2.66,0,0,1-.86,2,2.69,2.69,0,0,1-2,.79,2.8,2.8,0,0,1-2-.79,2.76,2.76,0,0,1-.85-2V413.7a26.15,26.15,0,0,0-6.7-18.09,21,21,0,0,0-32.31,0,26,26,0,0,0-6.72,18.09v28.61a2.76,2.76,0,0,1-.85,2,2.77,2.77,0,0,1-4,0,2.76,2.76,0,0,1-.85-2V385.2a2.72,2.72,0,0,1,.85-2,2.74,2.74,0,0,1,4,0,2.72,2.72,0,0,1,.85,2V395q8.59-12.69,22.87-12.68Z" fill="none"/></clipPath></defs><path d="M162.13,411a24.69,24.69,0,0,0-8.42-16.33,25.91,25.91,0,0,0-34.64,0A24.62,24.62,0,0,0,110.64,411Zm-25.78,34.13A31.35,31.35,0,0,1,114.06,436a31,31,0,0,1-9.27-22.12,31.68,31.68,0,0,1,9.27-22.31,31.7,31.7,0,0,1,10-6.7,31.56,31.56,0,0,1,24.62,0,32.15,32.15,0,0,1,10,6.7,31.22,31.22,0,0,1,6.75,10.08A30.77,30.77,0,0,1,168,413.88a2.5,2.5,0,0,1-.86,2,2.6,2.6,0,0,1-2,.86h-54.5a24.67,24.67,0,0,0,8.42,16.15,25.13,25.13,0,0,0,17.29,6.6q15.6,0,23.34-10.75a2.82,2.82,0,0,1,1.8-1.13,1.89,1.89,0,0,1,.47-.06,3,3,0,0,1,1.65.56,2.63,2.63,0,0,1,1.12,1.89,2.53,2.53,0,0,1,.06.56,2.56,2.56,0,0,1-.5,1.53,29.69,29.69,0,0,1-11.73,9.73,37.49,37.49,0,0,1-16.21,3.36ZM224,382.52a2.75,2.75,0,0,1,1.53,1.59,3.19,3.19,0,0,1,.18,1,3.59,3.59,0,0,1-.21,1.15l-34.14,80.27a2.65,2.65,0,0,1-2.62,1.69,3.59,3.59,0,0,1-1.15-.21A2.82,2.82,0,0,1,186,466.5a3.19,3.19,0,0,1-.18-1,2.92,2.92,0,0,1,.24-1.14l9.4-22.06-23.85-56a2.81,2.81,0,0,1-.23-1.09,3.08,3.08,0,0,1,1.71-2.68,3.08,3.08,0,0,1,1.08-.21,3.47,3.47,0,0,1,1.13.21,2.79,2.79,0,0,1,1.55,1.54L198.54,435l21.67-50.93a3.1,3.1,0,0,1,1.59-1.54,3.18,3.18,0,0,1,1.09-.21,3,3,0,0,1,1.07.21ZM286.45,411A24.75,24.75,0,0,0,278,394.7a25.91,25.91,0,0,0-34.64,0A24.66,24.66,0,0,0,235,411Zm-25.79,34.13A31.35,31.35,0,0,1,238.37,436a31.16,31.16,0,0,1-6.78-34.35,31.31,31.31,0,0,1,6.78-10.08,31.7,31.7,0,0,1,10-6.7,31.56,31.56,0,0,1,24.62,0,31.92,31.92,0,0,1,10,6.7,31.22,31.22,0,0,1,6.75,10.08,30.77,30.77,0,0,1,2.51,12.23,2.53,2.53,0,0,1-.85,2,2.64,2.64,0,0,1-2,.86H235a24.64,24.64,0,0,0,8.43,16.15,25.11,25.11,0,0,0,17.28,6.6c10.41,0,18.17-3.59,23.34-10.75a2.82,2.82,0,0,1,1.8-1.13,1.89,1.89,0,0,1,.47-.06,3,3,0,0,1,1.65.56,2.67,2.67,0,0,1,1.13,1.89,2.54,2.54,0,0,1,.05.56,2.56,2.56,0,0,1-.5,1.53,29.69,29.69,0,0,1-11.73,9.73,37.46,37.46,0,0,1-16.21,3.36Zm68.15-57.11a24,24,0,0,0-17.8,7.56,26.15,26.15,0,0,0,0,36.29,24,24,0,0,0,17.8,7.57q12.76,0,20.32-10.58a2.69,2.69,0,0,1,1.82-1.15l.56,0a2.64,2.64,0,0,1,1.6.5,2.89,2.89,0,0,1,1.14,1.88,1.68,1.68,0,0,1,.06.45,2.92,2.92,0,0,1-.56,1.65c-6.2,8.64-14.49,13-24.94,13A29.43,29.43,0,0,1,307,435.94a31.77,31.77,0,0,1,0-44.37,29.45,29.45,0,0,1,21.78-9.2c10.45,0,18.74,4.31,24.94,13a2.85,2.85,0,0,1,.56,1.65,1.78,1.78,0,0,1-.06.44,2.94,2.94,0,0,1-1.14,1.89,2.78,2.78,0,0,1-1.6.5,2.81,2.81,0,0,1-.56-.06,2.58,2.58,0,0,1-1.82-1.14Q341.59,388,328.81,388.05Zm62,51.42a23.73,23.73,0,0,0,17.74-7.57,25.95,25.95,0,0,0,0-36.29,23.72,23.72,0,0,0-17.74-7.56A24,24,0,0,0,373,395.61a26.15,26.15,0,0,0,0,36.29A24,24,0,0,0,390.82,439.47Zm28-57.1a2.67,2.67,0,0,1,2,.85,2.74,2.74,0,0,1,.79,2v57.11a2.8,2.8,0,0,1-2.77,2.85,2.86,2.86,0,0,1-2.06-.85,2.8,2.8,0,0,1-.8-2V431.9q-9.25,13.26-25.15,13.26A29.39,29.39,0,0,1,369,435.94a31.77,31.77,0,0,1,0-44.37,29.45,29.45,0,0,1,21.78-9.2q15.88,0,25.15,13.3V385.2a2.82,2.82,0,0,1,2.86-2.83Zm42.71,0q11.84,0,20.14,9.2a31.58,31.58,0,0,1,8.41,22.13v28.67a2.66,2.66,0,0,1-.86,2,2.69,2.69,0,0,1-2,.79,2.8,2.8,0,0,1-2-.79,2.76,2.76,0,0,1-.85-2V413.7a26.15,26.15,0,0,0-6.7-18.09,21,21,0,0,0-32.31,0,26,26,0,0,0-6.72,18.09v28.61a2.76,2.76,0,0,1-.85,2,2.77,2.77,0,0,1-4,0,2.76,2.76,0,0,1-.85-2V385.2a2.72,2.72,0,0,1,.85-2,2.74,2.74,0,0,1,4,0,2.72,2.72,0,0,1,.85,2V395q8.59-12.69,22.87-12.68Z" transform="translate(-73.49 -358.35)" fill="#0065c4"/><g clip-path="url(#a)"><path d="M88.59,425.87S284,375,511.21,425.87,508,364.7,508,364.7L73.49,358.35l15.1,67.52Z" transform="translate(-73.49 -358.35)" fill="#f60" fill-rule="evenodd"/></g><path d="M162.13,411a24.69,24.69,0,0,0-8.42-16.33,25.91,25.91,0,0,0-34.64,0A24.62,24.62,0,0,0,110.64,411Zm-25.78,34.13A31.35,31.35,0,0,1,114.06,436a31,31,0,0,1-9.27-22.12,31.68,31.68,0,0,1,9.27-22.31,31.7,31.7,0,0,1,10-6.7,31.56,31.56,0,0,1,24.62,0,32.15,32.15,0,0,1,10,6.7,31.22,31.22,0,0,1,6.75,10.08A30.77,30.77,0,0,1,168,413.88a2.5,2.5,0,0,1-.86,2,2.6,2.6,0,0,1-2,.86h-54.5a24.67,24.67,0,0,0,8.42,16.15,25.13,25.13,0,0,0,17.29,6.6q15.6,0,23.34-10.75a2.82,2.82,0,0,1,1.8-1.13,1.89,1.89,0,0,1,.47-.06,3,3,0,0,1,1.65.56,2.63,2.63,0,0,1,1.12,1.89,2.53,2.53,0,0,1,.06.56,2.56,2.56,0,0,1-.5,1.53,29.69,29.69,0,0,1-11.73,9.73,37.49,37.49,0,0,1-16.21,3.36ZM224,382.52a2.75,2.75,0,0,1,1.53,1.59,3.19,3.19,0,0,1,.18,1,3.59,3.59,0,0,1-.21,1.15l-34.14,80.27a2.65,2.65,0,0,1-2.62,1.69,3.59,3.59,0,0,1-1.15-.21A2.82,2.82,0,0,1,186,466.5a3.19,3.19,0,0,1-.18-1,2.92,2.92,0,0,1,.24-1.14l9.4-22.06-23.85-56a2.81,2.81,0,0,1-.23-1.09,3.08,3.08,0,0,1,1.71-2.68,3.08,3.08,0,0,1,1.08-.21,3.47,3.47,0,0,1,1.13.21,2.79,2.79,0,0,1,1.55,1.54L198.54,435l21.67-50.93a3.1,3.1,0,0,1,1.59-1.54,3.18,3.18,0,0,1,1.09-.21,3,3,0,0,1,1.07.21ZM286.45,411A24.75,24.75,0,0,0,278,394.7a25.91,25.91,0,0,0-34.64,0A24.66,24.66,0,0,0,235,411Zm-25.79,34.13A31.35,31.35,0,0,1,238.37,436a31.16,31.16,0,0,1-6.78-34.35,31.31,31.31,0,0,1,6.78-10.08,31.7,31.7,0,0,1,10-6.7,31.56,31.56,0,0,1,24.62,0,31.92,31.92,0,0,1,10,6.7,31.22,31.22,0,0,1,6.75,10.08,30.77,30.77,0,0,1,2.51,12.23,2.53,2.53,0,0,1-.85,2,2.64,2.64,0,0,1-2,.86H235a24.64,24.64,0,0,0,8.43,16.15,25.11,25.11,0,0,0,17.28,6.6c10.41,0,18.17-3.59,23.34-10.75a2.82,2.82,0,0,1,1.8-1.13,1.89,1.89,0,0,1,.47-.06,3,3,0,0,1,1.65.56,2.67,2.67,0,0,1,1.13,1.89,2.54,2.54,0,0,1,.05.56,2.56,2.56,0,0,1-.5,1.53,29.69,29.69,0,0,1-11.73,9.73,37.46,37.46,0,0,1-16.21,3.36Zm68.15-57.11a24,24,0,0,0-17.8,7.56,26.15,26.15,0,0,0,0,36.29,24,24,0,0,0,17.8,7.57q12.76,0,20.32-10.58a2.69,2.69,0,0,1,1.82-1.15l.56,0a2.64,2.64,0,0,1,1.6.5,2.89,2.89,0,0,1,1.14,1.88,1.68,1.68,0,0,1,.06.45,2.92,2.92,0,0,1-.56,1.65c-6.2,8.64-14.49,13-24.94,13A29.43,29.43,0,0,1,307,435.94a31.77,31.77,0,0,1,0-44.37,29.45,29.45,0,0,1,21.78-9.2c10.45,0,18.74,4.31,24.94,13a2.85,2.85,0,0,1,.56,1.65,1.78,1.78,0,0,1-.06.44,2.94,2.94,0,0,1-1.14,1.89,2.78,2.78,0,0,1-1.6.5,2.81,2.81,0,0,1-.56-.06,2.58,2.58,0,0,1-1.82-1.14Q341.59,388,328.81,388.05Zm62,51.42a23.73,23.73,0,0,0,17.74-7.57,25.95,25.95,0,0,0,0-36.29,23.72,23.72,0,0,0-17.74-7.56A24,24,0,0,0,373,395.61a26.15,26.15,0,0,0,0,36.29A24,24,0,0,0,390.82,439.47Zm28-57.1a2.67,2.67,0,0,1,2,.85,2.74,2.74,0,0,1,.79,2v57.11a2.8,2.8,0,0,1-2.77,2.85,2.86,2.86,0,0,1-2.06-.85,2.8,2.8,0,0,1-.8-2V431.9q-9.25,13.26-25.15,13.26A29.39,29.39,0,0,1,369,435.94a31.77,31.77,0,0,1,0-44.37,29.45,29.45,0,0,1,21.78-9.2q15.88,0,25.15,13.3V385.2a2.82,2.82,0,0,1,2.86-2.83Zm42.71,0q11.84,0,20.14,9.2a31.58,31.58,0,0,1,8.41,22.13v28.67a2.66,2.66,0,0,1-.86,2,2.69,2.69,0,0,1-2,.79,2.8,2.8,0,0,1-2-.79,2.76,2.76,0,0,1-.85-2V413.7a26.15,26.15,0,0,0-6.7-18.09,21,21,0,0,0-32.31,0,26,26,0,0,0-6.72,18.09v28.61a2.76,2.76,0,0,1-.85,2,2.77,2.77,0,0,1-4,0,2.76,2.76,0,0,1-.85-2V385.2a2.72,2.72,0,0,1,.85-2,2.74,2.74,0,0,1,4,0,2.72,2.72,0,0,1,.85,2V395q8.59-12.69,22.87-12.68Z" transform="translate(-73.49 -358.35)" fill="none"/></svg>